<?xml version="1.0" encoding="UTF-8" standalone="yes"?>
<svg xmlns="http://www.w3.org/2000/svg" xmlns:xlink="http://www.w3.org/1999/xlink" width="30px" height="30px" viewBox="0 0 30 30" version="1.1" fill="#000000">
  <g id="surface310608">
    <path style=" stroke:none;fill-rule:nonzero;fill:#000000;fill-opacity:1;" d="M 26.996094 13.746094 C 26.996094 18.285156 24.792969 21.09375 21.203125 21.09375 C 19.34375 21.09375 18.015625 20.285156 17.628906 18.917969 L 17.351562 18.917969 C 16.761719 20.375 15.636719 21.109375 13.980469 21.109375 C 10.980469 21.109375 8.992188 18.6875 8.992188 15.03125 C 8.992188 11.527344 10.910156 9.167969 13.765625 9.167969 C 15.320312 9.167969 16.546875 9.914062 17.121094 11.214844 L 17.398438 11.214844 L 17.398438 9.511719 L 20.710938 9.511719 L 20.710938 16.832031 C 20.710938 17.855469 21.171875 18.460938 21.953125 18.460938 C 23.21875 18.460938 24.027344 16.773438 24.027344 14.09375 C 24.027344 8.878906 20.613281 5.535156 15.292969 5.535156 C 9.742188 5.535156 5.96875 9.425781 5.96875 15.089844 C 5.96875 20.820312 9.773438 24.410156 15.882812 24.410156 C 17.210938 24.410156 18.578125 24.234375 19.328125 24.007812 L 19.328125 26.570312 C 18.289062 26.84375 16.9375 27 15.566406 27 C 8.027344 27 2.996094 22.203125 2.996094 15.015625 C 2.996094 7.910156 8.042969 3 15.335938 3 C 22.285156 3 26.996094 7.351562 26.996094 13.746094 Z M 12.785156 15.128906 C 12.785156 17.003906 13.5625 18.125 14.875 18.125 C 16.199219 18.125 17.007812 16.988281 17.007812 15.128906 C 17.007812 13.273438 16.183594 12.132812 14.875 12.132812 C 13.5625 12.132812 12.785156 13.257812 12.785156 15.128906 Z M 12.785156 15.128906 "/>
  </g>
</svg>
